# xmcd CD database file
#
# Track frame offsets:
#	150
#	11888
#	29438
#
# Disc length: 656 seconds
#
# Revision: 0
# Processed by: cddbd v1.5.1PL0 Copyright (c) Steve Scherf et al.
# Submitted via: CDex 1.51
#
DISCID=1e028e03
DTITLE=Super Girl Juice - あげない/Blue Bird/ZEROZEROHEAVEN
DYEAR=2005
DGENRE=Rock
TTITLE0=あげない
TTITLE1=Blue Bird
TTITLE2=ZEROZERO HEAVEN
EXTD=YEAR: 2005
EXTT0=
EXTT1=
EXTT2=
PLAYORDER=
